<?xml version="1.0" encoding="UTF-8" standalone="no"?>
<!-- Created with Inkscape (http://www.inkscape.org/) -->

<svg
   xmlns:dc="http://purl.org/dc/elements/1.1/"
   xmlns:cc="http://creativecommons.org/ns#"
   xmlns:rdf="http://www.w3.org/1999/02/22-rdf-syntax-ns#"
   xmlns:svg="http://www.w3.org/2000/svg"
   xmlns="http://www.w3.org/2000/svg"
   xmlns:sodipodi="http://sodipodi.sourceforge.net/DTD/sodipodi-0.dtd"
   xmlns:inkscape="http://www.inkscape.org/namespaces/inkscape"
   version="1.0"
   width="215"
   height="215"
   viewBox="-0.628 -0.612 512 470.85"
   id="svg2"
   xml:space="preserve"
   inkscape:version="0.91 r13725"
   sodipodi:docname="LOGO.svg"
   inkscape:export-filename="/home/hagb/tmp/LOGO.png"
   inkscape:export-xdpi="1674.4186"
   inkscape:export-ydpi="1674.4186"><metadata
     id="metadata11"><rdf:RDF><cc:Work
         rdf:about=""><dc:format>image/svg+xml</dc:format><dc:type
           rdf:resource="http://purl.org/dc/dcmitype/StillImage" /><dc:title></dc:title></cc:Work></rdf:RDF></metadata><sodipodi:namedview
     pagecolor="#ffffff"
     bordercolor="#666666"
     borderopacity="1"
     objecttolerance="10"
     gridtolerance="10"
     guidetolerance="10"
     inkscape:pageopacity="0"
     inkscape:pageshadow="2"
     inkscape:window-width="1266"
     inkscape:window-height="940"
     id="namedview9"
     showgrid="false"
     inkscape:snap-bbox="true"
     showguides="true"
     inkscape:zoom="1.4142136"
     inkscape:cx="15.396738"
     inkscape:cy="77.993583"
     inkscape:window-x="0"
     inkscape:window-y="48"
     inkscape:window-maximized="0"
     inkscape:current-layer="svg2"
     inkscape:snap-page="false" /><defs
     id="defs4"><inkscape:perspective
       id="perspective2670"
       inkscape:persp3d-origin="250 : 166.66667 : 1"
       inkscape:vp_z="500 : 250 : 1"
       inkscape:vp_y="0 : 1000 : 0"
       inkscape:vp_x="0 : 250 : 1"
       sodipodi:type="inkscape:persp3d" /></defs><g
     transform="matrix(0.89525408,1.0386936,-0.93578847,0.7322628,314.88154,-139.90466)"
     id="g1911"><path
       d="m 145.24946,305.95411 c -4e-5,0.38744 2.50102,-3.34934 2.66169,-2.69614 l 0.42377,1.72287 c 22.9004,-10.87101 33.21444,1.41996 48.75883,2.30043 0.504,10e-6 0.996,0.15625 1.5,0.15625 0.864,0 1.72975,-0.15625 2.59375,-0.15625 2.95199,-0.35999 5.75175,-1.06675 8.34375,-2.21875 3.456,-1.584 6.42025,-3.65525 9.15625,-6.03125 2.44801,-2.44799 4.65925,-4.92025 6.53125,-7.65625 1.72801,-2.592 2.96075,-5.40125 3.96875,-8.28125 1.08,-2.592 1.73375,-5.53575 2.09375,-8.34375 0.36,-2.23201 0.5,-4.60225 0.5,-6.90625 11.52,-1.008 22.768,-2.38475 34,-3.96875 16.99199,-2.952 33.7415,-8.773 49.4375,-17.125 4.32001,-2.232 8.66775,-4.45825 12.84375,-6.90625 2.736,-1.512 5.82925,-3.4555 8.78125,-5.6875 2.592,-2.088 5.018,-4.1185 7.25,-6.0625 2.448,-2.23199 4.821,-4.817 7.125,-7.625 4.10401,-4.968 7.0655,-10.87325 8.9375,-17.28125 0.72,-2.88001 1.21475,-5.8415 1.71875,-8.9375 0,-1.08 0.21875,-2.0885 0.21875,-3.3125 0,-1.368 -0.19975,-2.9445 -0.34375,-4.3125 -0.50399,-2.80799 -1.242,-5.408 -2.25,-8 -0.71999,-1.512 -1.5735,-3.08175 -2.4375,-4.59375 0,1.512 0.003,2.7135 0.21875,3.9375 -0.216,2.23201 -0.71475,4.97325 -1.21875,7.78125 -0.72,2.59201 -1.74475,5.0615 -2.96875,7.4375 -1.008,1.72801 -2.2135,3.4445 -3.4375,4.8125 -1.94401,2.088 -3.97725,4.022 -6.28125,5.75 -2.016,1.72901 -4.29925,3.257 -6.53125,4.625 -2.376,1.584 -5.2015,2.95125 -7.9375,4.03125 -2.08799,1.00801 -4.302,1.871 -6.75,2.375 -2.73601,0.864 -5.70425,1.35875 -8.65625,1.71875 -2.088,0.216 -4.1715,0.36275 -6.1875,0.21875 -0.72001,0 -1.07475,-0.371 -1.21875,-0.875 -10e-6,-0.576 -0.0163,-0.85875 0.34375,-1.21875 0.504,-0.72 1.015,-1.3615 1.375,-1.9375 l 11.375,-13.59375 -41.96875,3.4375 c -3.312,0.36 -6.563,0.37625 -9.875,-0.34375 -2.73599,-0.35999 -5.31425,-1.026 -7.90625,-2.25 -2.95201,-1.368 -6.40675,-3.0845 -9.71875,-4.8125 l -12.90625,34.6875 c -3.96001,1.07999 -8.13375,2.24475 -12.09375,3.46875 0.864,-0.36 -3.44225,1.2285 -7.90625,2.8125 -4.68,1.728 -7.8415,3.08175 -10.9375,4.59375 -6.048,2.952 -11.89625,6.27775 -17.65625,10.09375 -2.88,1.872 -6.04125,4.10225 -9.28125,6.40625 -1.944,1.51201 -4.018,3.2435 -6.25,5.1875 l -6.4375,6.1875 c -3.24001,3.096 -6.33325,6.756 -8.78125,10.5"
       transform="translate(-0.628,-0.612)"
       id="path16"
       inkscape:connector-curvature="0"
       sodipodi:nodetypes="csccscccccccccccccccscccccccccccccccccccccccccccccc" /><path
       d="m 313.596,285.732 c -17.352,10.224 -36.504,16.992 -56.592,19.944 l -13.968,1.152 -14.256,0.864 -15.048,-0.144 c 3.96,-2.448 7.56,-5.328 10.728,-8.64 l 3.096,-3.6 c 2.592,-3.312 4.68,-6.768 6.048,-10.584 0.648,-2.448 1.224,-4.68 1.728,-7.056 l 0.864,-5.544 14.976,-1.584 11.736,-1.512 7.92,-1.224 c 4.536,-0.864 9,-2.088 13.536,-3.456 l 14.472,-5.184 11.232,-5.04 11.448,-5.688 10.728,-5.904 8.424,-5.688 10.728,-10.008 7.992,-10.944 -0.504,4.176 c -2.088,13.464 -7.128,26.424 -14.544,38.016 -5.04,7.992 -11.448,14.688 -18.864,19.872 l -3.96,2.808 -7.92,4.968 z"
       id="path20"
       inkscape:connector-curvature="0" /><path
       d="m 341.82,154.692 c -3.313,-2.376 -6.768,-4.464 -10.584,-6.192 l -62.064,-25.776 -1.008,-0.504 c -0.216,0 -0.36,-0.144 -0.576,-0.144 -0.144,0 -0.504,0.144 -0.648,0.36 -0.36,0.288 -0.36,0.648 -0.36,1.008 0,0.36 0,0.72 0.36,0.864 l 17.28,22.464 3.816,5.184 c 0.864,1.728 1.224,3.456 1.368,5.184 0,0.216 0,0.36 0,0.504 0,1.584 -0.36,3.312 -0.864,4.896 l -1.872,3.96 -1.728,2.592 c 3.744,-0.72 7.2,-1.368 10.872,-1.944 4.68,-0.864 9.648,-1.512 14.832,-1.728 4.32,-0.144 8.352,-0.288 12.456,-0.288 3.096,0.144 6.552,0.288 10.008,0.648 2.304,0.36 4.32,0.72 6.408,1.224 1.584,0.504 3.168,1.368 4.536,2.232 2.232,1.584 3.96,3.672 4.968,6.048 0.864,1.944 1.44,4.176 1.584,6.264 0.72,-1.944 1.008,-3.816 1.008,-5.904 0,-0.36 0,-0.504 0,-0.864 -0.144,-2.592 -0.504,-5.04 -1.152,-7.632 -1.08,-2.736 -2.448,-5.328 -4.032,-7.56 -1.368,-1.728 -2.88,-3.312 -4.464,-4.68 0,-0.216 -0.144,-0.216 -0.144,-0.216 z"
       id="path22"
       inkscape:connector-curvature="0" /><path
       d="m 296.316,300.564 c 3.24,-1.368 6.336,-2.88 9.288,-4.608 0.36,0.144 0.864,0.144 1.224,0.144 2.088,0 4.176,-0.144 6.192,-0.504 6.048,-0.504 12.096,-1.368 18,-2.448 -6.408,4.32 -12.456,9 -18,14.04 -4.824,4.104 -9.144,8.64 -13.464,13.032 -1.224,0 -2.232,-0.36 -3.096,-0.648 -3.816,-1.728 -7.272,-3.6 -10.728,-5.688 -3.312,-1.872 -6.192,-4.104 -8.64,-6.696 1.872,-0.72 3.816,-1.368 5.688,-1.944 4.68,-1.152 9.144,-2.736 13.536,-4.68 z"
       id="path24"
       inkscape:connector-curvature="0" /></g><path
     sodipodi:nodetypes="cssccsssssssssscccssssssssssssccccsssssssssssscccssssssssssssscccsssssssssccsssssssscs"
     id="path1308"
     d="m 219.79537,275.40543 c -2.4255,-4.37198 -3.10213,-6.62771 -4.43216,-8.86874 -2.06705,-3.4829 -3.62262,-4.8333 -8.65126,-8.37553 -5.24935,-3.69768 -10.14914,-6.26879 -28.87303,-15.15084 -7.88292,-2.2862 -15.0983,-6.57533 -21.4786,-9.39844 -11.2501,-4.95878 -26.77756,-13.38879 -28.01694,-15.21071 -0.37445,-0.55043 -1.33964,-1.12995 -2.14489,-1.28783 -1.39758,-0.274 -7.4827,-5.24104 -13.04558,-10.6486 -2.85639,-2.77659 -13.377111,-18.06918 -16.021241,-23.28794 -2.031182,-4.00895 -4.637661,-13.2243 -5.559464,-19.65569 -2.079091,-14.50582 1.099558,-25.97899 9.990385,-36.05984 8.17006,-9.26365 16.24081,-13.93924 27.77159,-16.08883 2.99527,-0.5584 5.51281,-1.3249 5.59454,-1.70336 0.0817,-0.37846 1.69225,-0.38546 3.57894,-0.0156 3.09387,0.60658 4.01345,1.48028 9.37517,8.90727 3.26965,4.5291 6.60058,10.11545 7.40203,12.41409 l 1.45721,4.17938 -4.15643,2.73759 c -5.48488,3.61255 -9.24261,8.56394 -10.30886,13.58361 -1.18815,5.59334 -0.83429,13.84888 0.73443,17.1369 0.72455,1.51862 1.24726,3.0858 1.16157,3.48259 -0.55097,2.55143 18.64892,23.96232 25.1464,28.04217 1.39738,0.87742 4.32005,2.82661 6.49478,4.33153 7.75616,5.36718 22.07855,12.75608 33.94191,17.51056 14.9126,5.97651 30.07298,13.51536 32.9606,16.39039 1.09219,1.08745 2.51055,2.09614 3.1519,2.24154 0.64134,0.14543 2.28227,1.65372 3.6465,3.35185 1.36422,1.69815 3.00923,3.19123 3.65564,3.31796 2.46344,0.48298 8.95056,10.96966 10.41146,16.83059 1.39099,5.58053 11.83514,3.30275 9.6439,11.83026 -2.21502,8.62014 2.91402,5.31602 -3.57161,14.11814 -27.34738,-14.26706 9.45359,-25.04369 -49.85889,-14.65452 z m 13.2739,-51.94232 c -15.3861,-7.28532 -22.92012,-11.93164 -29.36203,-18.10786 -2.11383,-2.02665 -4.23693,-3.76198 -4.71799,-3.8563 -3.06082,-0.60008 -20.828,-26.38844 -25.90594,-37.60148 -1.08117,-2.38745 -3.02603,-6.21582 -4.32186,-8.50748 -4.37913,-7.74444 -5.72092,-10.58091 -8.83854,-18.68426 -4.86058,-12.63367 -8.7702,-20.08246 -12.97354,-24.71768 -6.07323,-6.69722 -8.43567,-7.99311 -14.42379,-7.91193 -2.77158,0.0375 -6.10218,0.25486 -7.40129,0.4829 -4.28853,0.75275 -17.86507,-1.74762 -27.975211,-5.152165 -5.359635,-1.804837 -12.734659,-4.292998 -16.388944,-5.529272 -6.4661,-2.187498 -6.743431,-2.20663 -10.348158,-0.713799 -5.913692,2.449075 -8.904018,1.005625 -12.340665,-5.956888 -2.296907,-4.653412 -1.816906,-6.52149 0.811225,-3.157189 0.879706,1.126138 2.903951,3.05909 4.498287,4.29547 l 2.898818,2.247935 3.112058,-1.894056 c 2.782985,-1.693757 3.544507,-1.758576 7.201562,-0.612977 4.649993,1.456624 6.005995,0.941376 21.375827,-8.122437 4.458931,-2.629491 9.397221,-5.134855 10.973991,-5.567449 1.57676,-0.432616 2.93267,-1.091443 3.01312,-1.464053 0.1809,-0.837701 7.56505,-2.433759 14.00492,-3.02713 13.34627,-1.229742 28.58531,5.933395 40.50245,19.038293 5.73646,6.308162 24.31945,33.700287 27.79002,40.963687 1.30184,2.72455 3.32341,6.48301 4.4924,8.3521 1.16898,1.86911 4.02755,6.7628 6.35242,10.87489 7.99953,14.14907 19.69822,23.93027 39.74299,33.22881 10.39222,4.82084 11.59738,5.20673 14.87859,4.76412 8.24223,-1.11181 15.36267,-7.21389 15.49078,-13.27531 0.11136,-5.26817 -8.54272,-16.5105 -18.64457,-24.2208 -12.30042,-9.38835 -21.19074,-13.09228 -43.80935,-18.25215 l -17.95223,-4.09537 -8.13819,-14.76479 c -5.41774,-9.82922 -7.74819,-14.906158 -6.97146,-15.187671 1.38253,-0.501091 29.50898,-1.32368 38.5879,-1.128553 3.48344,0.07486 11.4329,1.146891 17.66544,2.382256 9.53446,1.889878 13.04166,3.007938 22.11156,7.049208 5.92883,2.64171 12.05314,5.53577 13.6096,6.43122 12.93014,7.43908 25.66116,18.88614 33.70235,30.30335 10.16471,14.43229 13.47439,26.85105 11.19492,42.00631 -3.27,21.74093 -14.16862,36.84487 -30.59085,42.39454 -3.01277,1.01815 -7.56277,2.12762 -10.1111,2.46553 -11.50605,1.5257 -33.70785,-1.4685 -42.79552,-5.77157 z M 123.6529,87.771094 c 0.44957,-0.676572 0.94863,-2.062005 1.10907,-3.078762 0.2116,-1.341334 -0.0119,-1.18448 -0.81412,0.571509 -0.97221,2.127941 -1.47325,2.348113 -4.14942,1.823433 -2.68823,-0.527042 -3.01676,-0.879947 -2.81292,-3.02185 0.12692,-1.333818 0.81757,-2.879464 1.53479,-3.434781 0.78998,-0.611669 0.95178,-1.078719 0.41045,-1.184847 -1.40221,-0.274917 -3.60831,3.910059 -3.25679,6.178163 0.25346,1.6355 0.98738,2.166747 3.73847,2.706116 2.31693,0.45425 3.68721,0.273611 4.24047,-0.558981 z"
     style="fill:#000000"
     inkscape:connector-curvature="0" /><path
     style="fill:none;fill-rule:evenodd;stroke:#000000;stroke-width:2.51021481px;stroke-linecap:butt;stroke-linejoin:miter;stroke-opacity:1"
     d="m 210.69151,224.18009 c 5.90979,4.00669 0,0 0,0 z"
     id="path3618"
     inkscape:connector-curvature="0" /><path
     style="fill:none;fill-rule:evenodd;stroke:#000000;stroke-width:2.51021481px;stroke-linecap:butt;stroke-linejoin:miter;stroke-opacity:1"
     d="m 216.26033,229.37794 c -6.02342,-5.30614 -5.45519,-5.19785 -5.45519,-5.19785 l 5.11424,2.8155 z"
     id="path3620"
     inkscape:connector-curvature="0" /><g
     inkscape:groupmode="layer"
     id="layer1"
     inkscape:label="测量"
     style="display:none"><ellipse
       style="opacity:0.37078654;fill:#000000;fill-opacity:0;stroke:#000000;stroke-width:2.41026354;stroke-linejoin:round;stroke-miterlimit:4;stroke-dasharray:none;stroke-opacity:1"
       id="path5947"
       cx="255.37201"
       cy="234.81299"
       rx="254.79488"
       ry="254.79486" /></g></svg>