<?xml version="1.0" encoding="UTF-8" standalone="no"?>
<!-- Created with Inkscape (http://www.inkscape.org/) -->

<svg
   xmlns:dc="http://purl.org/dc/elements/1.1/"
   xmlns:cc="http://creativecommons.org/ns#"
   xmlns:rdf="http://www.w3.org/1999/02/22-rdf-syntax-ns#"
   xmlns:svg="http://www.w3.org/2000/svg"
   xmlns="http://www.w3.org/2000/svg"
   xmlns:sodipodi="http://sodipodi.sourceforge.net/DTD/sodipodi-0.dtd"
   xmlns:inkscape="http://www.inkscape.org/namespaces/inkscape"
   version="1.0"
   width="215"
   height="215"
   viewBox="-0.628 -0.612 512 470.85"
   id="svg2"
   xml:space="preserve"
   inkscape:version="0.92.2 5c3e80d, 2017-08-06"
   sodipodi:docname="LOGO.svg"
   inkscape:export-filename="/home/hagb/tmp/LOGO.png"
   inkscape:export-xdpi="1674.4186"
   inkscape:export-ydpi="1674.4186"><metadata
     id="metadata11"><rdf:RDF><cc:Work
         rdf:about=""><dc:format>image/svg+xml</dc:format><dc:type
           rdf:resource="http://purl.org/dc/dcmitype/StillImage" /><dc:title /></cc:Work></rdf:RDF></metadata><sodipodi:namedview
     pagecolor="#ffffff"
     bordercolor="#666666"
     borderopacity="1"
     objecttolerance="10"
     gridtolerance="10"
     guidetolerance="10"
     inkscape:pageopacity="0"
     inkscape:pageshadow="2"
     inkscape:window-width="1266"
     inkscape:window-height="900"
     id="namedview9"
     showgrid="false"
     inkscape:snap-bbox="true"
     showguides="true"
     inkscape:zoom="2.0000001"
     inkscape:cx="68.432589"
     inkscape:cy="91.361974"
     inkscape:window-x="0"
     inkscape:window-y="48"
     inkscape:window-maximized="0"
     inkscape:current-layer="svg2"
     inkscape:snap-page="false" /><defs
     id="defs4"><inkscape:perspective
       id="perspective2670"
       inkscape:persp3d-origin="250 : 166.66667 : 1"
       inkscape:vp_z="500 : 250 : 1"
       inkscape:vp_y="0 : 1000 : 0"
       inkscape:vp_x="0 : 250 : 1"
       sodipodi:type="inkscape:persp3d" /></defs><g
     transform="matrix(0.89525408,1.0386936,-0.93578847,0.7322628,314.88154,-139.90466)"
     id="g1911"><path
       style="stroke-width:0.53571874"
       d="M 54.216797 38.195312 C 53.860848 38.200304 53.508478 38.219678 53.158203 38.251953 C 50.453961 38.501123 47.353308 39.171669 47.277344 39.523438 C 47.243561 39.679903 46.673835 39.955054 46.011719 40.136719 C 45.349599 40.318374 43.274746 41.370429 41.402344 42.474609 C 34.948215 46.280703 34.380368 46.498387 32.427734 45.886719 C 30.892057 45.405657 30.57098 45.433286 29.402344 46.144531 L 28.095703 46.939453 L 26.878906 45.994141 C 26.20941 45.474958 25.359642 44.664296 24.990234 44.191406 C 23.886625 42.778663 23.683916 43.563509 24.648438 45.517578 C 26.091559 48.44129 27.348743 49.045998 29.832031 48.017578 C 31.345735 47.390706 31.460524 47.399781 34.175781 48.318359 C 35.710295 48.837498 38.807966 49.882734 41.058594 50.640625 C 45.304063 52.070268 51.005793 53.118831 52.806641 52.802734 C 53.352165 52.706975 54.750217 52.61731 55.914062 52.601562 C 58.428605 52.567475 59.420421 53.111519 61.970703 55.923828 C 63.735778 57.870258 65.376905 60.99758 67.417969 66.302734 C 68.727126 69.705508 69.291967 70.896378 71.130859 74.148438 C 71.675007 75.110754 72.491308 76.718161 72.945312 77.720703 C 75.077651 82.429304 82.538913 93.257779 83.824219 93.509766 C 84.026226 93.549373 84.917044 94.279825 85.804688 95.130859 C 88.509784 97.724389 91.673806 99.6751 98.134766 102.73438 C 101.95088 104.54133 111.27383 105.79888 116.10547 105.1582 C 117.17557 105.01631 119.08643 104.55059 120.35156 104.12305 C 127.24762 101.79262 131.82412 95.449805 133.19727 86.320312 C 134.15446 79.956289 132.76448 74.740122 128.49609 68.679688 C 125.11942 63.885349 119.7734 59.078911 114.34375 55.955078 C 113.69016 55.579059 111.11855 54.363218 108.62891 53.253906 C 104.82026 51.556889 103.34748 51.088523 99.34375 50.294922 C 96.72657 49.776165 93.388554 49.326357 91.925781 49.294922 C 88.113344 49.212984 76.301258 49.557159 75.720703 49.767578 C 75.394537 49.885792 76.37341 52.01898 78.648438 56.146484 L 82.066406 62.345703 L 89.605469 64.066406 C 99.103518 66.233151 102.83674 67.788095 108.00195 71.730469 C 112.24394 74.968192 115.87684 79.688171 115.83008 81.900391 C 115.77628 84.445713 112.78726 87.007738 109.32617 87.474609 C 107.94832 87.660471 107.44205 87.498986 103.07812 85.474609 C 94.660898 81.569949 89.74785 77.462988 86.388672 71.521484 C 85.412408 69.794728 84.211583 67.739958 83.720703 66.955078 C 83.229819 66.170206 82.382607 64.591364 81.835938 63.447266 C 80.378569 60.397205 72.574881 48.895029 70.166016 46.246094 C 65.474515 41.087 59.556037 38.120435 54.216797 38.195312 z M 50.205078 42.257812 C 50.432394 42.30238 50.364933 42.499006 50.033203 42.755859 C 49.732027 42.989049 49.441968 43.637166 49.388672 44.197266 C 49.303075 45.096698 49.441468 45.24548 50.570312 45.466797 C 51.694095 45.687121 51.904248 45.594741 52.3125 44.701172 C 52.64937 43.963794 52.743152 43.897682 52.654297 44.460938 C 52.586925 44.887894 52.376284 45.469799 52.1875 45.753906 C 51.955174 46.10353 51.381133 46.179031 50.408203 45.988281 C 49.25296 45.761788 48.944324 45.538345 48.837891 44.851562 C 48.69028 43.899138 49.616259 42.142369 50.205078 42.257812 z M 57.390625 54.828125 C 57.118227 54.829311 56.940982 54.869757 56.923828 54.949219 C 56.889508 55.108142 55.831998 55.42958 54.574219 55.664062 C 49.732192 56.566722 46.342896 58.529913 42.912109 62.419922 C 39.178657 66.653091 37.843741 71.471189 38.716797 77.5625 C 39.103882 80.263181 40.197843 84.13296 41.050781 85.816406 C 42.161109 88.007878 46.579836 94.429752 47.779297 95.595703 C 50.115272 97.866456 52.67094 99.953299 53.257812 100.06836 C 53.595955 100.13466 54.000963 100.37628 54.158203 100.60742 C 54.678646 101.37249 61.197712 104.91379 65.921875 106.99609 C 66.797501 107.38354 67.723766 107.84068 68.671875 108.30859 C 81.265881 114.92986 80.38136 123.13825 85.839844 130.13867 C 86.029312 130.3585 86.152325 130.62197 86.341797 130.8418 C 86.666606 131.21865 87.054097 131.54698 87.378906 131.92383 C 88.630129 133.1007 89.959603 134.10454 91.386719 134.88086 C 93.308402 135.90119 95.236987 136.55873 97.199219 137.02148 C 99.081473 137.33649 100.88518 137.54042 102.66406 137.51562 C 104.33223 137.47232 105.89949 137.14514 107.41016 136.69922 C 108.83472 136.37326 110.2378 135.75328 111.47656 135.04688 C 112.48899 134.51757 113.47158 133.85104 114.37695 133.14258 C 119.10385 137.85731 123.87378 142.33996 128.71875 146.75195 C 136.26668 153.25563 144.85051 158.77088 154.0332 163.04883 C 156.53434 164.24676 159.0443 165.45864 161.57617 166.52734 C 163.19889 167.25578 165.12448 168.00812 167.11133 168.60938 C 168.90625 169.09788 170.6177 169.53048 172.2207 169.90625 C 174.01807 170.28767 175.92495 170.52843 177.89453 170.66992 C 181.3896 170.93234 184.82309 170.40781 188.04492 169.25391 C 189.44732 168.68237 190.79705 167.98803 192.20312 167.25586 C 192.62753 166.92377 193.10691 166.7084 193.58789 166.33203 C 194.12546 165.91138 194.66891 165.33893 195.15234 164.85547 C 196.0663 163.77221 196.81157 162.65074 197.45117 161.41406 C 197.77465 160.63509 198.0705 159.78123 198.33984 158.93945 C 197.74569 159.40438 197.27487 159.77562 196.875 160.24609 C 195.91671 160.83821 194.65227 161.46381 193.35938 162.10742 C 192.07014 162.5904 190.71413 162.90092 189.32031 163.09766 C 188.26233 163.18935 187.13443 163.19136 186.13672 163.07812 C 184.5854 162.87225 183.06081 162.58101 181.51562 162.10742 C 180.07832 161.75976 178.61884 161.23452 177.24219 160.68164 C 175.72652 160.13237 174.12874 159.32025 172.67578 158.45898 C 171.49472 157.85822 170.32342 157.15691 169.20508 156.24414 C 167.837 155.31645 166.52662 154.17492 165.27539 152.99805 C 164.40556 152.15374 163.56458 151.28883 162.86328 150.36523 C 162.5926 150.05119 162.60413 149.78224 162.74805 149.56445 C 162.97439 149.38733 163.07865 149.2935 163.35547 149.33984 C 163.82787 149.33828 164.27308 149.36384 164.63477 149.34375 L 174.25195 150.125 L 157.125 132.87695 C 155.73843 131.54306 154.50904 130.13083 153.54688 128.46484 C 152.65978 127.16079 151.95243 125.83114 151.45898 124.32422 C 150.88678 122.61599 150.26138 120.58141 149.69531 118.60547 L 131.21289 123.64258 C 129.29979 122.24743 127.27438 120.78446 125.30469 119.43359 C 125.77096 119.69975 123.52719 118.3096 121.22656 116.84961 C 118.78815 115.33968 117.0686 114.37764 115.31055 113.49219 C 111.87687 111.76195 108.37 110.23348 104.70508 108.89453 C 102.88676 108.21399 100.82263 107.52113 98.699219 106.81641 C 98.680093 106.81088 98.657854 106.80631 98.638672 106.80078 C 95.938719 105.38147 92.132405 103.62892 88.345703 102.11133 C 83.364019 100.11482 77.348778 97.011611 74.091797 94.757812 C 73.17858 94.125864 71.952025 93.307901 71.365234 92.939453 C 68.6368 91.226235 60.573321 82.235464 60.804688 81.164062 C 60.840671 80.997444 60.620661 80.338874 60.316406 79.701172 C 59.657666 78.32046 59.510835 74.852672 60.009766 72.503906 C 60.457507 70.396037 62.03467 68.31777 64.337891 66.800781 L 66.083984 65.650391 L 65.470703 63.896484 C 65.134157 62.931235 63.736279 60.585462 62.363281 58.683594 C 60.111778 55.564838 59.724965 55.198076 58.425781 54.943359 C 58.02965 54.865703 57.663023 54.826939 57.390625 54.828125 z M 184.5625 104.20703 C 184.41124 104.21447 184.30532 104.29784 184.19922 104.38086 C 184.05775 104.49156 183.91539 104.60143 183.99414 104.80273 L 181.66211 119.24805 L 181.06055 122.50586 C 180.70632 123.41406 180.16201 124.10311 179.53711 124.69727 L 179.33984 124.85156 C 178.7174 125.33863 177.90176 125.71323 177.08984 125.98047 L 174.83008 126.38086 L 173.16211 126.42578 C 174.85255 127.83741 176.40689 129.14386 178.01367 130.56836 C 180.11257 132.34396 182.2358 134.31312 184.26953 136.50781 C 185.95016 138.34779 187.52161 140.06152 189.06445 141.85156 C 190.17177 143.24622 191.41449 144.79791 192.57227 146.41602 C 193.29696 147.53165 193.91309 148.52219 194.5 149.58789 C 194.89743 150.43376 195.15336 151.3896 195.32812 152.25195 C 195.54477 153.71255 195.37504 155.10903 194.82031 156.2793 C 194.38121 157.25391 193.71949 158.19163 192.95312 158.89648 C 193.98771 158.61276 194.83185 158.16158 195.65234 157.51953 L 195.99219 157.25391 C 196.9566 156.39408 197.78365 155.48396 198.55859 154.4043 C 199.22772 153.09193 199.73207 151.69948 200.01367 150.32227 C 200.17842 149.19424 200.23175 148.04709 200.17383 146.93555 C 200.25871 146.86913 200.20508 146.80664 200.20508 146.80664 C 199.89327 144.63101 199.41375 142.48093 198.6582 140.28516 L 185.45508 105.28906 L 185.27539 104.69531 C 185.19419 104.6011 185.19644 104.49265 185.11523 104.39844 C 185.0611 104.33563 184.86948 104.22295 184.73047 104.22656 C 184.66834 104.20945 184.61292 104.20455 184.5625 104.20703 z M 114.35156 136.8457 L 111.84766 138.17383 C 110.72452 138.6846 109.63135 139.11974 108.42578 139.58984 C 106.41197 140.16656 104.26809 140.31917 101.99219 140.20703 L 99.414062 139.96289 C 96.92162 139.59952 94.436999 138.91394 91.986328 137.93945 L 97.585938 144.54883 L 103.28516 150.5 L 108.98828 156.23828 C 117.70011 164.09235 127.5607 170.36445 138.10156 174.78906 L 143.03125 176.7168 L 145.62305 177.58008 C 150.44809 179.22067 155.4882 179.95645 160.52344 179.69727 C 167.86655 179.36744 174.85394 177.58093 180.92969 174.35156 L 182.75977 173.28711 L 175.45508 173.16602 L 167.48828 171.56445 L 162.08789 169.64062 L 155.73438 166.77539 L 149.19531 163.53125 L 142.99219 160.18164 L 135.51367 155.46484 C 133.27086 153.90703 131.11312 152.33584 129.06836 150.62305 L 125.60938 147.54492 L 120.60352 142.89062 L 114.35156 136.8457 z M 115.94727 165.46484 C 115.84901 167.32961 116.05301 169.27275 116.5625 171.29297 C 117.04124 173.44242 117.60578 175.52493 118.36133 177.7207 C 118.57297 178.18611 118.80938 178.73761 119.26953 179.27148 C 122.61945 179.80523 126.02691 180.29459 129.45312 181.13672 C 133.51783 182.00508 137.62975 183.20331 141.73633 184.66992 C 139.0924 182.42687 136.47953 180.05525 134.00781 177.57227 C 133.10846 176.80364 132.26738 175.93611 131.48242 175.02539 C 131.34708 174.86837 131.15688 174.64857 131.07812 174.44727 C 129.28933 173.69104 127.53295 172.80504 125.77734 171.8125 C 123.36232 170.49461 121.06168 169.0347 118.84961 167.34766 C 117.91951 166.70826 116.93395 166.05996 115.94727 165.46484 z "
       transform="matrix(1.0714251,-1.5197854,1.3692177,1.309909,-73.69398,266.65717)"
       id="path16" /></g><path
     style="fill:none;fill-rule:evenodd;stroke:#000000;stroke-width:2.51021481px;stroke-linecap:butt;stroke-linejoin:miter;stroke-opacity:1"
     d="m 210.69151,224.18009 c 5.90979,4.00669 0,0 0,0 z"
     id="path3618"
     inkscape:connector-curvature="0" /><path
     style="fill:none;fill-rule:evenodd;stroke:#000000;stroke-width:2.51021481px;stroke-linecap:butt;stroke-linejoin:miter;stroke-opacity:1"
     d="m 216.26033,229.37794 c -6.02342,-5.30614 -5.45519,-5.19785 -5.45519,-5.19785 l 5.11424,2.8155 z"
     id="path3620"
     inkscape:connector-curvature="0" /><g
     inkscape:groupmode="layer"
     id="layer1"
     inkscape:label="测量"
     style="display:none"><ellipse
       style="opacity:0.37078654;fill:#000000;fill-opacity:0;stroke:#000000;stroke-width:2.41026354;stroke-linejoin:round;stroke-miterlimit:4;stroke-dasharray:none;stroke-opacity:1"
       id="path5947"
       cx="255.37201"
       cy="234.81299"
       rx="254.79488"
       ry="254.79486" /></g></svg>